<svg height="512pt" viewBox="-34 0 512 512.001" width="512pt" xmlns="http://www.w3.org/2000/svg"><path d="m411.355469 424.421875-12.785157-4.304687c-2.058593-.6875-3.921874-1.871094-5.410156-3.433594-2.410156-2.515625-3.738281-5.835938-3.738281-9.34375v-13.722656l4.300781-2.621094c7.648438-4.660156 12.398438-13.125 12.398438-22.089844v-22.660156c0-.019532 0-.042969 0-.0625v-19.773438c0-15.804687-12.84375-28.660156-28.628906-28.660156h-26.15625c-15.785157 0-28.628907 12.855469-28.628907 28.660156v17.039063.027343 25.429688c0 8.964844 4.75 17.429688 12.398438 22.089844l4.304687 2.625v13.71875c0 3.746094-1.566406 7.355468-4.292968 9.898437-1.398438 1.296875-3.035157 2.269531-4.867188 2.882813l-12.773438 4.300781c-3.597656 1.214844-6.96875 2.835937-10.113281 4.824219-3.171875-4.675782-7.035156-8.886719-11.445312-12.40625-3.238281-2.582032-7.957031-2.050782-10.542969 1.1875-2.582031 3.238281-2.050781 7.957031 1.1875 10.539062 5.011719 4 9.074219 9.199219 11.75 15.035156 2.46875 5.394532 3.722656 11.152344 3.722656 17.097657v43.800781c0 4.144531 3.355469 7.5 7.5 7.5 4.140625 0 7.5-3.355469 7.5-7.5v-43.800781c0-6.15625-.988281-12.160157-2.9375-17.921875 2.488282-1.753906 5.21875-3.144532 8.167969-4.140625l12.773437-4.296875c2.371094-.800782 4.589844-1.886719 6.640626-3.246094 3.996093 1.199219 8.0625 2.058594 12.179687 2.5625l-13.132813 46.414062c-.699218 2.472657-.082031 5.132813 1.632813 7.046876l15.644531 17.445312c1.378906 1.535156 3.332032 2.4375 5.394532 2.488281.0625.003907.128906.003907.1875.003907 2 0 3.917968-.796876 5.328124-2.21875l17.296876-17.445313c1.960937-1.972656 2.664062-4.867187 1.835937-7.519531l-14.535156-46.445313c4.289062-.628906 8.515625-1.636719 12.652343-3.015625 2.324219 1.683594 4.902344 3.015625 7.632813 3.929688l12.769531 4.296875c13 4.378906 21.734375 16.550781 21.734375 30.285156v35.578125c0 4.140625 3.359375 7.5 7.5 7.5s7.5-3.359375 7.5-7.5v-35.578125c.003907-20.179687-12.835937-38.0625-31.945312-44.5zm-47.238281-5.222656c-4.007813.085937-7.976563-.25-11.882813-.96875 1.417969-3.425781 2.179687-7.125 2.179687-10.890625v-4.914063c3.203126 1.351563 6.601563 2.035157 10 2.035157 3.402344 0 6.804688-.683594 10.007813-2.039063v4.917969c0 3.570312.664063 7.050781 1.910156 10.289062-4.003906.945313-8.089843 1.480469-12.214843 1.570313zm-12.777344-106.449219h26.152344c7.515624 0 13.628906 6.128906 13.628906 13.660156v9.445313l-35.570313-11.449219c-1.914062-.617188-3.992187-.4375-5.769531.492188l-12.070312 6.300781v-4.789063c0-7.53125 6.113281-13.660156 13.628906-13.660156zm-13.628906 35.371094 16.230468-8.476563 37.179688 11.96875v17.292969c0 3.769531-1.992188 7.324219-5.207032 9.28125l-15.867187 9.675781c-3.472656 2.117188-7.789063 2.117188-11.261719 0l-15.867187-9.675781c-3.214844-1.957031-5.207031-5.515625-5.207031-9.28125zm26.152343 140.503906-7.578125-8.445312 7.664063-27.09375 8.433593 26.949218zm0 0"/><path d="m267.203125 403.621094-4.058594-1.367188c-2.78125-.925781-5.328125-2.539062-7.363281-4.667968-3.273438-3.421876-5.078125-7.929688-5.078125-12.695313v-17.871094l6.125-3.734375c8.902344-5.425781 14.433594-15.28125 14.433594-25.71875v-27.917968c0-.019532 0-.042969 0-.0625v-24.335938c0-18.5-15.035157-33.550781-33.511719-33.550781h-32.199219c-18.480469 0-33.515625 15.050781-33.515625 33.550781v21.007812.027344 31.28125c0 10.4375 5.53125 20.289063 14.433594 25.71875l6.132812 3.738282v17.867187c0 5.082031-2.132812 9.988281-5.851562 13.453125-1.898438 1.765625-4.121094 3.082031-6.617188 3.921875l-15.714843 5.296875c-11.632813 3.914062-21.644531 11.617188-28.480469 21.683594-3.148438-1.992188-6.523438-3.617188-10.113281-4.824219l-12.785157-4.304687c-2.078124-.695313-3.898437-1.847657-5.414062-3.4375-2.40625-2.511719-3.734375-5.832032-3.734375-9.339844v-13.722656l4.300781-2.621094c7.648438-4.660156 12.398438-13.125 12.398438-22.089844v-22.660156c0-.019532 0-.042969 0-.0625v-19.773438c0-15.804687-12.84375-28.660156-28.628906-28.660156h-26.15625c-15.785157 0-28.628907 12.855469-28.628907 28.660156v17.039063.027343 25.429688c0 8.964844 4.753907 17.429688 12.402344 22.089844l4.300781 2.625v13.71875c0 3.742187-1.566406 7.351562-4.292968 9.898437-1.394532 1.292969-3.035157 2.265625-4.867188 2.882813l-12.769531 4.300781c-19.109375 6.433594-31.949219 24.316406-31.949219 44.5v35.578125c0 4.140625 3.359375 7.5 7.5 7.5s7.5-3.359375 7.5-7.5v-35.578125c0-13.738281 8.734375-25.90625 21.734375-30.285156l12.769531-4.296875c2.375-.800782 4.59375-1.886719 6.644532-3.246094 3.992187 1.199219 8.0625 2.058594 12.179687 2.5625l-13.132813 46.414062c-.699218 2.472657-.082031 5.132813 1.632813 7.046876l15.644531 17.445312c1.378906 1.535156 3.332032 2.4375 5.394532 2.488281.0625 0 .128906.003907.1875.003907 2 0 3.917968-.796876 5.328124-2.21875l17.296876-17.445313c1.960937-1.972656 2.664062-4.867187 1.835937-7.519531l-14.53125-46.449219c4.285156-.625 8.511719-1.636719 12.652344-3.011719 2.324219 1.683594 4.90625 3.015625 7.628906 3.925782l12.773437 4.300781c2.9375.988281 5.667969 2.382812 8.164063 4.140625-1.945313 5.757812-2.933594 11.761718-2.933594 17.921875v43.800781c0 4.140625 3.355469 7.5 7.5 7.5 4.140625 0 7.5-3.359375 7.5-7.5v-43.800781c0-5.949219 1.25-11.703125 3.71875-17.097657 4.703125-10.277343 13.527344-18.230468 24.214844-21.824218l15.707031-5.296875c3.039063-1.015625 5.855469-2.445313 8.4375-4.246094 5.730469 1.777344 11.59375 2.957031 17.527344 3.546875l-16.722656 59.113281c-.699219 2.472657-.082032 5.132813 1.632812 7.046875l19.261719 21.476563c1.378906 1.535156 3.328125 2.4375 5.394531 2.488281.0625 0 .125.003906.1875.003906 1.996094 0 3.914063-.796875 5.324219-2.21875l21.300781-21.472656c1.957032-1.976562 2.660156-4.871094 1.832032-7.523438l-18.503907-59.140624c6.171875-.757813 12.25-2.160157 18.179688-4.199219 2.902343 2.21875 6.15625 3.96875 9.609375 5.121093l4.035156 1.359376c.792969.269531 1.601562.394531 2.394531.394531 3.128907 0 6.050781-1.976563 7.105469-5.105469 1.332031-3.925781-.78125-8.179688-4.703125-9.503906zm-188.617187 15.578125c-4.003907.085937-7.972657-.25-11.878907-.96875 1.414063-3.425781 2.175781-7.125 2.175781-10.890625v-4.917969c3.203126 1.355469 6.601563 2.039063 10.003907 2.039063 3.402343 0 6.800781-.6875 10.007812-2.039063v4.917969c0 3.570312.660157 7.046875 1.910157 10.289062-4.007813.945313-8.089844 1.480469-12.21875 1.570313zm-12.777344-106.449219h26.15625c7.515625 0 13.628906 6.128906 13.628906 13.660156v9.445313l-35.574219-11.449219c-1.910156-.617188-3.988281-.4375-5.769531.492188l-12.070312 6.300781v-4.789063c0-7.53125 6.113281-13.660156 13.628906-13.660156zm-13.628906 35.371094 16.234374-8.476563 37.179688 11.96875v17.292969c0 3.769531-1.996094 7.324219-5.207031 9.28125l-15.867188 9.675781c-3.476562 2.113281-7.792969 2.117188-11.261719 0l-15.871093-9.675781c-3.210938-1.957031-5.207031-5.515625-5.207031-9.28125zm26.15625 140.503906-7.578126-8.445312 7.664063-27.09375 8.433594 26.949218zm142.984374-87.40625c-5.789062.125-11.523437-.425781-17.140624-1.632812 2.222656-4.535157 3.421874-9.566407 3.421874-14.695313v-8.796875c4.410157 2.335938 9.226563 3.511719 14.050782 3.511719 4.820312 0 9.640625-1.179688 14.050781-3.515625v8.800781c0 4.851563 1.035156 9.5625 2.992187 13.859375-5.679687 1.503906-11.492187 2.34375-17.375 2.46875zm-15.769531-134.519531h32.199219c10.207031 0 18.511719 8.320312 18.511719 18.550781v14.007812l-46.058594-14.824218c-1.910156-.617188-3.988281-.441406-5.769531.492187l-17.394532 9.082031v-8.757812c0-10.230469 8.304688-18.550781 18.511719-18.550781zm-18.511719 70.867187v-26.636718l21.554688-11.257813 47.667969 15.34375v22.550781c0 5.238282-2.773438 10.1875-7.238281 12.910156l-19.539063 11.910157c-4.832031 2.945312-10.835937 2.941406-15.667969 0l-19.535156-11.910157c-4.46875-2.722656-7.242188-7.671874-7.242188-12.910156zm33.871094 149.917969-11.195312-12.480469 11.28125-39.871094 12.429687 39.730469zm0 0"/><path d="m406.121094 167.078125v-134.269531c0-18.089844-14.714844-32.808594-32.804688-32.808594h-303.328125c-18.089843 0-32.808593 14.71875-32.808593 32.808594v21.691406c0 4.140625 3.359374 7.5 7.5 7.5 4.144531 0 7.5-3.359375 7.5-7.5v-21.691406c0-9.820313 7.988281-17.808594 17.808593-17.808594h303.328125c9.816406 0 17.804688 7.988281 17.804688 17.808594v134.269531c0 9.820313-7.988282 17.808594-17.804688 17.808594h-100.828125c-7.410156 0-14.101562 4.363281-17.039062 11.121093-5.855469 13.460938-19.121094 22.15625-33.796875 22.15625-14.675782 0-27.941406-8.695312-33.792969-22.15625-2.9375-6.757812-9.628906-11.121093-17.042969-11.121093h-100.828125c-9.820312 0-17.808593-7.988281-17.808593-17.808594v-79.078125c0-4.140625-3.355469-7.5-7.5-7.5-4.140626 0-7.5 3.359375-7.5 7.5v79.078125c0 18.089844 14.71875 32.808594 32.808593 32.808594h100.828125c1.441406 0 2.730469.824219 3.285156 2.101562 7.226563 16.617188 22.476563 28.070313 40.050782 30.632813v3.710937c0 4.144531 3.359375 7.5 7.5 7.5 4.144531 0 7.5-3.355469 7.5-7.5v-3.710937c17.574218-2.5625 32.824218-14.019532 40.050781-30.632813.558594-1.277343 1.847656-2.101562 3.285156-2.101562h100.828125c18.089844 0 32.804688-14.71875 32.804688-32.808594zm0 0"/><path d="m107.1875 66.5h228.933594c4.140625 0 7.5-3.359375 7.5-7.5s-3.359375-7.5-7.5-7.5h-228.933594c-4.144531 0-7.5 3.359375-7.5 7.5s3.355469 7.5 7.5 7.5zm0 0"/><path d="m107.1875 108.167969h228.933594c4.140625 0 7.5-3.359375 7.5-7.5 0-4.144531-3.359375-7.5-7.5-7.5h-228.933594c-4.144531 0-7.5 3.355469-7.5 7.5 0 4.140625 3.355469 7.5 7.5 7.5zm0 0"/><path d="m161.027344 134.832031c-4.140625 0-7.5 3.359375-7.5 7.5 0 4.144531 3.359375 7.5 7.5 7.5h121.25c4.144531 0 7.5-3.355469 7.5-7.5 0-4.140625-3.355469-7.5-7.5-7.5zm0 0"/></svg>