<svg id="Capa_1" enable-background="new 0 0 512.007 512.007" height="512" viewBox="0 0 512.007 512.007" width="512" xmlns="http://www.w3.org/2000/svg"><g><path d="m236.609 269.191c-5.625 5.625-15.586 5.625-21.211 0l-23.042-23.042-21.211 21.211 54.858 54.858 114.859-114.858-21.226-21.211z"/><path d="m487.991 153.219c-.776-.732-17.183-16.011-37.661-27.056-2.373-23.159-10.21-44.165-10.591-45.161-1.523-4.028-4.702-7.207-8.73-8.73-.996-.381-22.002-8.218-45.161-10.591-11.045-20.493-26.338-36.899-27.056-37.676-2.959-3.149-7.119-5.376-11.426-4.717-1.055.029-23.467.82-45.776 7.5-18.047-14.706-38.438-25.008-39.405-25.448-3.926-1.787-8.438-1.787-12.363 0-.967.439-21.357 10.741-39.404 25.448-22.31-6.68-44.722-7.471-45.776-7.5-4.512-.63-8.467 1.567-11.426 4.717-.718.776-16.011 17.183-27.056 37.676-23.159 2.373-44.165 10.21-45.161 10.591-4.028 1.523-7.207 4.702-8.73 8.73-.381.996-8.218 22.002-10.591 45.161-20.493 11.045-36.899 26.338-37.676 27.056-3.135 2.959-4.863 7.119-4.717 11.426.029 1.055.82 23.467 7.5 45.776-14.707 18.047-25.009 38.438-25.448 39.404-1.772 3.926-1.772 8.438 0 12.363.439.967 10.741 21.357 25.448 39.404-6.68 22.31-7.471 44.722-7.5 45.776-.146 4.307 1.582 8.467 4.717 11.426.776.718 17.183 16.011 37.676 27.056 2.373 23.159 10.21 44.165 10.591 45.161 1.523 4.028 4.702 7.207 8.745 8.73.996.381 21.987 8.218 45.146 10.591 11.045 20.479 26.323 36.885 27.056 37.661 2.944 3.149 7.178 5.127 11.426 4.731 1.055-.029 23.467-.82 45.762-7.5 18.062 14.692 38.452 25.009 39.419 25.448 1.963.894 4.072 1.333 6.182 1.333s4.219-.439 6.182-1.333c.967-.439 21.357-10.756 39.404-25.448 22.31 6.68 44.722 7.471 45.776 7.5 4.453.366 8.467-1.582 11.426-4.731.732-.776 16.011-17.183 27.056-37.661 23.159-2.373 44.15-10.21 45.146-10.591 4.043-1.523 7.222-4.702 8.745-8.73.381-.996 8.218-22.002 10.591-45.161 20.479-11.045 36.885-26.323 37.661-27.056 3.149-2.944 4.878-7.104 4.731-11.426-.029-1.055-.82-23.467-7.5-45.776 14.707-18.047 25.009-38.438 25.448-39.404 1.772-3.926 1.772-8.438 0-12.363-.439-.967-10.741-21.357-25.448-39.404 6.68-22.31 7.471-44.722 7.5-45.776.146-4.321-1.583-8.481-4.732-11.426zm-115.313 64.746-136.069 136.07c-2.93 2.93-6.768 4.395-10.605 4.395s-7.676-1.465-10.605-4.395l-76.069-76.069c-5.859-5.859-5.859-15.352 0-21.211l42.422-42.422c5.859-5.859 15.352-5.859 21.211 0l23.042 23.042 83.027-83.042c5.859-5.859 15.352-5.859 21.211 0l42.437 42.422c5.858 5.859 5.854 15.355-.002 21.21z"/></g></svg>